<?xml version="1.0" encoding="utf-8"?>
<!-- Generator: Adobe Illustrator 22.1.0, SVG Export Plug-In . SVG Version: 6.00 Build 0)  -->
<svg version="1.1" id="Capa_1" xmlns="http://www.w3.org/2000/svg" xmlns:xlink="http://www.w3.org/1999/xlink" x="0px" y="0px"
	 viewBox="0 0 774 264" style="enable-background:new 0 0 774 264;" xml:space="preserve">
<style type="text/css">
	.st0{fill:#FFFFFF;}
</style>
<g>
	<g>
		<g>
			<path class="st0" d="M325.7,98.7c-4.1,0.6-4.4,1-4.4,5v5.9c0,2.4,0.1,4.6,0.5,6.5c-4.3,1-9.9,2.6-15.4,2.6
				c-15.2,0-25.3-9.5-25.3-23.1c0-16,12.8-23.8,26.3-23.8c5.7,0,11,1.5,13.2,2c0.2,2.4,0.6,6.2,1.1,10.8l-1.9,0.4
				c-1.7-8.4-6.9-10.7-13.4-10.7c-10.5,0-18.3,7.7-18.3,20.5c0,9.9,5.9,21.5,19.2,21.5c2.3,0,4.5-0.5,6-1.2c1.4-0.8,2.2-1.6,2.2-4.5
				v-5.9c0-5-0.5-5.4-7.2-5.9v-1.9h17.5V98.7z"/>
			<path class="st0" d="M357.1,117.7v-1.9c4.3-0.6,5-1.1,4.1-3.8c-0.9-2.7-2.3-6.4-3.8-10.6h-14.7c-1.1,3.1-2.1,6-3,8.9
				c-1.5,4.3-0.9,5,4.3,5.5v1.9h-15v-1.9c4.3-0.6,5.3-1,7.7-7.1L351,72.4l2.1-0.6c4.3,11.9,8.9,25,13.3,37c2.2,5.9,3.1,6.6,7.6,7
				v1.9H357.1z M350.3,80.7h-0.1c-2.2,5.9-4.4,11.9-6.5,17.6h12.7L350.3,80.7z"/>
			<path class="st0" d="M411.7,106.8c-0.4,2.1-1.9,8.7-2.5,10.8H378v-1.9c5.8-0.4,6.3-0.9,6.3-6.8V81.4c0-5.9-0.5-6.2-6.1-6.6v-1.9
				h18v1.9c-5.4,0.4-6.1,0.8-6.1,6.6v27.3c0,3.7,0.3,5.1,1.6,5.8c1.4,0.8,3.7,0.9,6.6,0.9c3.8,0,6.1-0.3,7.7-2.1
				c1.2-1.4,2.5-3.6,3.5-6.8L411.7,106.8z"/>
			<path class="st0" d="M450.6,106.8c-0.4,2.3-1.8,8.8-2.4,10.9H415v-1.9c6.3-0.5,6.8-1,6.8-6.6V81.6c0-6.2-0.6-6.4-5.9-6.9v-1.9
				h30.7c0,1.7,0.3,6.4,0.5,9.9l-2,0.3c-0.6-2.9-1.3-4.4-2.2-5.9c-1-1.5-2.8-1.9-7.8-1.9h-5.2c-2.1,0-2.3,0.1-2.3,2.2v15.7h6.5
				c6.2,0,6.5-0.6,7.4-5.2h2v13.3h-2c-0.9-5-1.4-5.4-7.4-5.4h-6.5v13c0,3.2,0.4,4.7,1.7,5.6c1.3,0.8,3.7,0.9,7.2,0.9
				c5.2,0,7.2-0.6,8.7-2.3c1.2-1.4,2.5-3.7,3.4-6.5L450.6,106.8z"/>
			<path class="st0" d="M495.7,118.2c-0.8,0-1.6,0-2.4-0.1c-5.2-0.3-8.1-1.8-11.2-6.3c-2.4-3.4-4.9-7.7-7-11
				c-1.2-1.9-2.3-2.8-5.9-2.8H467v11c0,5.9,0.6,6.3,6.1,6.7v1.9H455v-1.9c5.7-0.4,6.3-0.8,6.3-6.7V81.3c0-5.9-0.6-6.1-5.9-6.6v-1.9
				h17.1c5,0,8.4,0.6,11,2.3c2.8,1.8,4.5,4.9,4.5,9c0,5.9-3.7,9.6-8.7,11.8c1.2,2.3,4.1,6.9,6.1,10c2.5,3.6,3.9,5.4,5.6,7.2
				c1.9,2.1,3.4,2.8,5,3.2L495.7,118.2z M470.3,95.8c3.5,0,5.8-0.6,7.5-1.9c2.7-2.1,3.8-4.8,3.8-8.6c0-7.5-4.9-10.2-10.1-10.2
				c-2,0-3.2,0.3-3.7,0.7c-0.5,0.3-0.8,1.2-0.8,3v17H470.3z"/>
			<path class="st0" d="M498.2,117.7v-1.9c5.6-0.4,6.2-0.8,6.2-6.7V81.4c0-5.9-0.6-6.3-6.2-6.7v-1.9h18.3v1.9
				c-5.7,0.4-6.2,0.8-6.2,6.7V109c0,5.9,0.6,6.3,6.2,6.7v1.9H498.2z"/>
			<path class="st0" d="M546.4,117.7v-1.9c4.3-0.6,5-1.1,4.1-3.8c-0.9-2.7-2.3-6.4-3.8-10.6H532c-1.1,3.1-2.1,6-3,8.9
				c-1.5,4.3-0.9,5,4.3,5.5v1.9h-15v-1.9c4.3-0.6,5.3-1,7.7-7.1l14.3-36.2l2.1-0.6c4.3,11.9,8.9,25,13.3,37c2.2,5.9,3.1,6.6,7.6,7
				v1.9H546.4z M539.6,80.7h-0.1c-2.2,5.9-4.4,11.9-6.5,17.6h12.7L539.6,80.7z"/>
			<path class="st0" d="M590.8,83.3c-1.2-4.4-3-9.2-9-9.2c-5.3,0-7.6,3.9-7.6,7.6c0,5,3.3,7.4,8.7,10.2c5.4,2.8,11.9,6,11.9,13.7
				c0,7.2-6.1,13-15.3,13c-2.8,0-5-0.6-6.8-1c-1.7-0.6-2.8-1.1-3.4-1.4c-0.5-1.4-1.4-7.4-1.9-10.7l2-0.5c1.1,4.2,4.2,11.2,11.3,11.2
				c5.2,0,8.3-3.2,8.3-8.3c0-5.1-3.8-7.5-9-10.3c-4.4-2.3-11.4-5.8-11.4-13.6c0-6.6,5.3-12.3,14.2-12.3c3.2,0,6.1,0.8,8.7,1.6
				c0.3,2.5,0.6,5.2,1.2,9.5L590.8,83.3z"/>
		</g>
		<g>
			<path class="st0" d="M90.2,139.8c-9.2,1.1-10.9,2.3-16,14.4c-3.6,8.8-17.9,43.1-28,71h-4.2c-9-24.7-20.1-53.9-27.9-73.4
				C10.1,141.7,8,140.6,0,140V136h33v3.8c-9.6,1.1-10.1,2-8,8c3.5,9.6,13.3,35.8,22.4,58.9h0.3c6.7-16.9,17-43.2,21.3-56.6
				c2.6-7.8,1.8-8.9-9.2-10.3V136h30.3V139.8z"/>
			<path class="st0" d="M98.1,223.8V220c11.1-0.8,12.1-1.6,12.1-13.1v-54c0-11.5-1.1-12.3-12.1-13.1V136h35.7v3.8
				c-11.1,0.8-12.1,1.6-12.1,13.1v54c0,11.6,1.1,12.3,12.1,13.1v3.8H98.1z"/>
			<path class="st0" d="M224.6,201.5c-1.9,6.2-5.3,16.2-7.7,20.7c-3.8,0.9-15.1,3.6-24.8,3.6c-33.6,0-48.2-23.2-48.2-44.7
				c0-28.3,21.8-47.1,51.9-47.1c10.9,0,20.1,3,23.9,3.6c1.1,7.7,1.9,13.1,2.7,20.4l-4,0.9c-3.5-14.3-11.6-20.1-26.1-20.1
				c-22.5,0-34.5,19-34.5,39.6c0,25.2,14.8,42.5,35.3,42.5c13.7,0,21-7.4,27.8-20.9L224.6,201.5z"/>
			<path class="st0" d="M304.2,157c-1.5-6.5-2.7-9.9-4.3-12c-2.2-3.2-4.4-4.2-14.6-4.2h-9.6v66.4c0,10.7,1.1,12,13.9,12.8v3.8h-38.7
				V220c12.3-0.8,13.3-2.2,13.3-12.8v-66.4h-8.4c-11.2,0-13.9,1.1-15.6,4.2c-1.6,2.3-2.7,6.1-4.3,12h-3.9c0.7-8.1,1.3-16.9,1.6-24.3
				h2.7c1.9,3.1,3.6,3.4,7.4,3.4H297c3.6,0,4.7-0.8,6.9-3.4h2.8c0,6.2,0.7,16.1,1.4,23.9L304.2,157z"/>
			<path class="st0" d="M362.4,134c22.8,0,43.4,17.8,43.4,44.8c0,29.2-20.3,47-45,47c-24.4,0-43.8-19-43.8-45
				c0-24.3,17-46.8,45.3-46.8H362.4z M359.4,138.9c-15,0-28.7,13-28.7,38.2c0,25.4,13.9,43.9,32.9,43.9c15,0,28.4-12.6,28.4-38.5
				c0-28.5-14.8-43.6-32.5-43.6H359.4z"/>
			<path class="st0" d="M495.7,224.9c-1.6,0-3.1,0-4.7-0.1c-10.1-0.5-15.8-3.5-21.8-12.3c-4.7-6.6-9.6-15-13.6-21.6
				c-2.3-3.8-4.6-5.4-11.6-5.4h-4.3v21.5c0,11.5,1.2,12.3,12,13.1v3.8h-35.4V220c11.1-0.8,12.3-1.6,12.3-13.1v-54.3
				c0-11.5-1.1-11.9-11.6-12.8V136h33.4c9.8,0,16.4,1.2,21.6,4.6c5.4,3.5,8.9,9.6,8.9,17.7c0,11.6-7.1,18.8-17.1,23.1
				c2.3,4.5,7.9,13.5,12,19.6c4.9,7,7.5,10.5,10.9,14c3.6,4.1,6.7,5.5,9.7,6.3L495.7,224.9z M446.1,181c6.9,0,11.3-1.1,14.7-3.8
				c5.3-4.1,7.4-9.5,7.4-16.7c0-14.6-9.6-20-19.8-20c-3.9,0-6.2,0.5-7.3,1.4c-0.9,0.7-1.5,2.3-1.5,5.9V181H446.1z"/>
			<path class="st0" d="M500.6,223.8V220c11.1-0.8,12.1-1.6,12.1-13.1v-54c0-11.5-1.1-12.3-12.1-13.1V136h35.7v3.8
				c-11.1,0.8-12.1,1.6-12.1,13.1v54c0,11.6,1.1,12.3,12.1,13.1v3.8H500.6z"/>
			<path class="st0" d="M596.3,223.8V220c8.5-1.1,9.7-2.2,8-7.4c-1.8-5.3-4.4-12.6-7.4-20.8h-28.7c-2.2,6.1-4.2,11.7-5.9,17.4
				c-3,8.5-1.8,9.9,8.4,10.8v3.8h-29.2V220c8.5-1.2,10.4-2,15.1-13.9l27.9-70.9l4.2-1.2c8.4,23.2,17.4,48.9,26,72.4
				c4.3,11.6,6.1,12.8,14.8,13.6v3.8H596.3z M583.1,151.6h-0.3c-4.3,11.6-8.6,23.4-12.7,34.4H595L583.1,151.6z"/>
		</g>
	</g>
	<g>
		<g>
			<g>
				<g>
					<path class="st0" d="M766.1,21.3c-0.9-0.2-1.2-1.3-0.6-2c1.2-1.1,1.8-2.5-2.4-2.4c-1,0-1.6-1.1-1-1.9c1.5-1.9,1.6-4.3-8.2-3.9
						c-0.9,0-1.5-1-1.1-1.8c1.5-2.7,2.4-6.8-10.7-0.6c-0.2,0.1-0.4,0-0.5-0.1c-0.5-0.9-2.3-3.4-7.9-3.8c-0.9-0.1-1.4-1.1-0.9-1.8
						c1.6-2.3,2.9-5.4-6.9,1c-0.7,0.4-1.6,0.1-1.8-0.7c-0.5-1.8-3.8-2.8-19.3,8.2c-2.9,2-5.5,4.4-7.9,6.9
						c-3.5,3.7-10.5,9.7-20.3,11.3c-0.2,0-0.4-0.1-0.7-0.1c-2-0.9-13.5-5.4-20.2,0.9c-0.4,0.4-0.7,0.4-1.8,0v3.1
						c4.2,1.3,9.3,2,17.6-0.1c17.2-4.2,19.4-6.3,29.3-16.1c4.3-4.2,8.6-6.1,12.5-8.2c5.4-3,9.4-5.2,7.1-3.2
						c-3.9,3.6-7.4,6.7-8.6,6.9c-1.2,0.3,1.8,0.1,1,0.7c-0.7,0.6-2.6,2-1.2,2c1.2,0,6.8-4.1,6.6-1.9c-0.1,0.9,0.8,1.5,1.6,1.2
						c3.7-1.6,8.7-3.1-2.8,6.1c0,0-1.5,1.4,1.4,0.1c1.9-0.9-0.3,1.1-2,2.4c-0.3,0.2,0,0.7,0.3,0.6c4.6-1.5,14.8-4.3,0.8,7.1
						c-0.3,0.2-0.1,0.6,0.2,0.6c0.8-0.1,2.2-0.2,4.6-0.5c2.8-0.3,2,0.3,0.7,0.9c-0.7,0.3-0.9,1.3-0.3,1.9c0.7,0.7,0.9,1.9-0.5,4.2
						c-1.3,2.1-2.8,2.7-4.1,2.7c-0.9,0-1.5,1-1,1.8c0.9,1.4,1.4,2.8,0.5,3.1c-0.7,0.2-1.2,1-0.7,1.7c1.7,2.7,3.6,6.7-3.5,1.2
						c-0.9-0.7-2.2,0.2-1.8,1.3c1,2.7,1.9,6.1,1.3,7.5L709,52l3.2,6.3c-0.8,0.1-2.1-0.5-4-2c-0.8-0.6-1.9,0-1.9,1
						c0.1,1.7-0.3,3.2-2.2,1.3c-0.7-0.7-1.8-0.3-2,0.6c-0.6,3.1-2.3,6.7-6.2-3c-0.1-0.3-0.4-0.5-0.7-0.7c-0.2-0.1-0.5-0.3-0.8-0.6
						c-0.2-0.2,0-0.5,0.2-0.6c1.1-0.1,3.4-0.7,3.2-2.9c-0.1-0.7,0.5-1.2,1.2-1.2c1.9,0.1,4.8-0.5,3.3-5.2c-0.3-0.8,0.5-1.6,1.4-1.5
						c1.2,0.2,2.5,0.2,2.7-0.8c0.1-0.6,0.7-1.1,1.3-1c2.3,0.3,5.8,0.2-0.4-4.8c-0.7-0.6-0.5-1.8,0.4-2c3.5-1.1,9.3-3.2,2.1-2.7
						c-9.8,0.7-4.8-2.3,0.3-4.7c2.1-1,1.9-1.4,1-1.6c-1.1-0.2-1.4-1.6-0.5-2.1c3.5-2.3,6.3-4.8-6.5-0.1c-0.3,0.1-0.7,0.1-1-0.1
						c-0.7-0.5-1.9-1.4-1.8-2.6c0.1-1.7-9.8,5.9-7.6,7.8c1.8,1.6,3.5,2.3,1.3,3.2c-0.8,0.3-1.8-0.3-1.6-1.2c0.1-0.9,0.1-1.8-0.9-1.6
						c-1.9,0.4-12.2,4.2-12.1,4.6c0.1,0.4-1.4,4.2-2.2,5.9c-0.1,0.2-0.5,0.3-0.6,0.5c-1.9,1.3-13.1,9-23.5,7.9v2.5
						c5.2,1.7,12.4,2.3,25.9-2.5c0.9-0.3,1.9,0.6,1.6,1.5c-0.2,0.8,0.2,1.3,2,1.1c0.2,0,0.4,0.1,0.4,0.3c0,2.1-0.3,11.8-2.1,13.4
						c-2.1,1.8-7.4,3.5-6,5.2c1.4,1.7,3.2,3.6,3,5.1c-0.1,0.9-0.3,2.9-0.2,4.6c0,1-1,1.5-1.8,1c-3.9-2.6-11.3-7.3-10.1-4
						c1.6,4.3,10.4,16.2,9.9,17.1c-0.4,0.9-13.1-4.5-10.2-1.5c0,0,0,0,0.1,0c0.5,0.3,7.6,5.1,11.3,5.5c0.5,0,1-0.2,1.2-0.7
						c0.4-1,0.9-3.1-0.1-7.1c-1.4-5.4,9.8,11.6,11.9,14.8c0.2,0.3,0.2,0.7,0.1,1c-1,2.8-6,14.8-12.9,9.8c-0.6-0.4-0.7-1.3-0.1-1.8
						c1.8-1.7,5.6-5.6,5.7-8.5c0-0.3-0.4-0.5-0.6-0.2c-1.4,1.9-5.4,7.2-7.7,8.4c-0.6,0.3-0.8,1-0.5,1.6c1.3,2.8,4.2,9.2,5.2,13.9
						c0.2,1.1-1.2,1.9-2,1c-2.1-2.2-5.4-5.1-8.4-5.8c-1.1-0.3-1.9,1-1.2,1.9c2.7,3.2,8.2,10.9,11.4,24.8
						c4.5,19.1,7.7,28.8,12.1,35.6c3.3,5,5.1,11,5.2,14.5c0,0.9-1.2,1.2-1.6,0.4L682,171.1c-0.1-0.3-0.6-0.1-0.5,0.2
						c0.6,1.9,3.5,8.9,2.4,6.7c-3.8-6.9-15.2-34.1-19.4-40.9c-1.9-3-6.2-7.3-10.3-11.1v4.5c3.1,2.5,7.7,7.9,11,12.6
						c3.7,5.3,12.3,24.8,15.5,32.6c0.1,0.3-0.5,0.5-0.6,0.2c-14-25.2-20.6-36.1-25.8-41.7v3.8c1,1.3,0.4,2.6,0.3,3.8
						c-0.1,1.2,1.7,1.7,2.2,0.6c0.2-0.3,0.1-0.7,0.2-0.9c0.6-2,9.8,6.8-2.7,37v23.8c6.2,10.1,17.4,25.5,19.1,26.9
						c2,1.7-4.7,4.6-4.8,4.3c-2-4.3-10.6-23.3-12.4-21.5c-2,2,0.1,32.2-0.3,34c-0.4,2,0.5,5.3-1.6,7.8v2.8c1,0,0.4,0.1,0.4,0.1
						c9,3.3,28.4,0,28.4,0l1.2-1.8c0.6-0.1,1.7-0.1,3.3,0c7.6,0.2,23.4,1.2,23.2,0.2c-0.1-1-3.9-3.8-2.7-4c1-0.1,5.9-1,7.9,1.6
						c0.8,1.1,2.5,0.2,1.9-1.1c-0.3-0.7-0.8-1.5-1.6-2.3c-0.7-0.7-0.1-1.9,0.8-1.9c1.3,0,2.9,0.3,4.5,1.6c0.2,0.2,0.6-0.1,0.4-0.4
						c-0.7-1.4-2.4-3.6-5.6-3.8c-0.8,0-1.3-0.8-1-1.5c0.8-1.9,1.5-5.1-1-7.9c-2.9-3.4-6.6-4.9-10.6-2.2c-1.3,0.9-1.6,2.6-1.3,4.1
						c0.2,1.1,1.7,1.2,2.1,0.2c0.5-1.2,1.7-2.2,3.8-1.4c4.8,1.8-1.1,12.9-11.3,6.3c-0.1-0.1-0.2-0.3-0.1-0.4c0.3-0.5,1.1-1.7,2-3.1
						c1-1.6-3.2-7.2-4.5-8.9c-0.2-0.3-0.3-0.7-0.1-1.1c1.2-3,6.1-16.1-4-5.3c-0.7,0.7-1.8,0.3-1.9-0.6c-0.5-4.1-0.6-12.2,5.2-12.9
						c4.4-0.5,5.2,3.6,5.1,7.4c0,1.4,2,1.6,2.2,0.2c0.3-2.7-0.3-6.6-3.2-12.1c-0.1-0.1-0.1-0.2-0.1-0.3c-0.1-1.4-0.1-3.2,0.7-3.8
						c0.2-0.2,0.5-0.5,0.6-0.9c0.2-1.3,0.5-4.3,0.2-5.9c0-0.3-0.1-0.5-0.2-0.7c-0.7-1.6,4.3,0.8,0.5-5.1c-0.1-0.1-0.1-0.3-0.2-0.4
						c-0.4-2.8-4.9-30.3-12.2-55.5c-0.1-0.4,0.5-0.6,0.7-0.2c2.8,7.5,6.7,18.7,8.2,27.8c0.2,1.3,2,1.3,2.3,0.1
						c2.7-11.6,6.8-37.3-4.1-55.5c-13-21.7-9.3-32.5-7.5-36c0.3-0.5,0.9-0.8,1.4-0.5c1.4,0.5,4,1.3,6,0c0.4-0.2,0.8-0.2,1.2,0
						c1.2,0.7,3.8,1.8,5.4-0.6c0.2-0.4,0.6-0.5,1.1-0.5c1,0.1,2.9-0.1,4.2-2.7c0.3-0.5,0.9-0.8,1.5-0.5c0.8,0.4,1.8,0.6,2.3-0.2
						c0.3-0.6,1-0.8,1.5-0.5c0.8,0.4,1.9,0.8,2.7,0.6c0.3-0.1,0.7-0.1,1,0.1c2.1,1.2,9.6,5.2,9.3,1.8c-0.1-0.6,0.4-1.2,1-1.3
						c2.5-0.3,7.6-1.3,8-3.9c0.3-2-1.4-3.1-2.9-3.6c-0.8-0.3-1-1.2-0.5-1.8c1.2-1.4,1.7-3.4-4.4-4.3c-0.2,0-0.3-0.2-0.3-0.3
						c0-0.3-0.1-0.7-0.5-1.1c-0.2-0.2-0.2-0.5,0.1-0.6c0.4-0.2,1-0.5,1.1-0.9c0.1-0.6,0.5-1,1.1-1.1c4.2-0.3,14.2-1.5,15-5.6
						c0.1-0.5,0.5-0.9,0.9-1c2.1-0.3,7.5-1.4,9.4-4.8c0.2-0.3,0.5-0.6,0.9-0.6c2-0.3,8.3-1.3,9.4-3.5c0.2-0.3,0.5-0.7,0.9-0.7
						c2.5-0.4,10.3-2.1,10.5-4.9C774.1,23.8,772.8,22.7,766.1,21.3z M672.5,30.8c-0.2,0.7-1.9,1.7-12.3-0.3
						c-0.3-0.1-0.4-0.4-0.3-0.6c0.6-1.2,3-4,12.4,0.4C672.5,30.4,672.6,30.7,672.5,30.8z M692.3,234.5c0,0-5.6-1-6.8-2.6
						c-1.1-1.6-19.1-28-18.9-30.4c0.1-2.4,5.8-18.6-2.1-4.9c0,0-1.7-16.9,0.8-29.6c0.1-0.6,0.9-11.3-0.8-14.1c0,0,3.9,4.1,4.4,6.3
						c0.5,2.3,2.6,34.6,9,43.8c6.4,9.3,9.7,21.3,8.8,22.4C685.7,226.5,692.3,234.5,692.3,234.5z M729,54c1,1-7.4,4-2.9,3.8
						c4.5-0.2,5,1.6,5,1.6c-5.9,5.6-16.5-1.8-12.6-1.4c3.9,0.4,1.7-3,1.7-3C725.1,55.9,724.3,49.6,729,54z M757.9,30.2
						c-0.3,0-0.3,0.4,0.2,0.5l2.1,0.5c0.2,0,0.3,0.3,0.1,0.4c-1.2,0.6-5.2,1.4-6.4,1.7c-0.2,0-0.3-0.1-0.3-0.3
						c0.1-0.7-0.5-1.5-0.8-1.8c-0.1-0.1-0.1-0.2,0-0.3c1.5-2.9,0.3-4.1-0.3-4.5c-0.1-0.1-0.1-0.3,0-0.4c3.7-3.7,1.3-6.5,0.8-6.9
						c0,0-0.1-0.1-0.1-0.2c0.2-3.3-2-3.2-2.7-3.1c-0.1,0-0.2-0.1-0.3-0.2c-1.2-5.1-13.1-4-6.2-2c7,2,2.9,3.4,1.7,3.9
						c-1.1,0.5-1.1,2.7,0.3,1.5c1.4-1.2,2.5-0.8,4.6,1.2c2,2-2.4,6.9-2.5,7.6s1.8,0.3,2.1,1.2c0.3,0.8-7,6.4-3.5,5.1
						c2.8-1.1,4-0.6,4.3-0.3c0.1,0.1,0.1,0.2,0.1,0.3c-2.1,4.4-8.3,4.9-10.3,4.9c-0.2,0-0.3-0.3-0.2-0.4c8.3-7.3,4.7-8.9,3.6-9.2
						c-0.1,0-0.2-0.2-0.1-0.3c4.2-8.6-0.1-9.4-1.3-9.4c-0.2,0-0.3-0.2-0.2-0.3c2.5-7.7-4.4-7.1-5.7-6.9c-0.1,0-0.2-0.1-0.3-0.2
						c-1.4-4.6-4.1-2-4.9-1.1c-0.1,0.1-0.1,0.3,0.1,0.4c4.9,1.7,1.6,5.1,0.9,5.8c-0.1,0.1-0.1,0.2,0,0.3c0.2,0.4,0.9,0.4,1.6,0.3
						c0.3,0,0.4,0.3,0.2,0.4c-0.6,0.4-1.3,0.8-1.5,1.1c-0.2,0.2,0,0.6,0.3,0.4c4.1-2,6.6-2.3,7.6-1.8c-0.6,0.3-2.1,1.3-3.7,2.3
						c-1,0.6-2,1.3-2.7,1.8c-0.4,0.3-0.6,0.5-0.8,0.6c-0.2,0.2-0.3,0.3-0.3,0.3c0,0,0.1-0.1,0.3-0.2c0.2-0.1,0.5-0.3,0.9-0.5
						c0.8-0.4,1.8-0.9,2.9-1.4c1.6-0.7,3.3-1.4,3.9-1.7c-0.7,2.1-6.3,5.3-8.8,7.2c-0.2,0.2,0,0.5,0.3,0.4c5.6-2.6,8.3-3.3,9.5-3.4
						c0,0,0,0.2-0.1,0.3c-0.1,0.3-0.2,0.7-0.5,1.2c-0.2,0.5-0.6,1-1.1,1.5c-0.5,0.5-1,1-1.7,1.4c-0.3,0.2-0.6,0.4-1,0.6
						c-0.3,0.2-0.7,0.4-1,0.5c-0.3,0.1-0.6,0.3-1,0.4c-0.3,0.1-0.6,0.2-0.9,0.3c-0.5,0.2-1,0.3-1.3,0.4c-0.3,0.1-0.5,0.2-0.5,0.2
						s0.2,0,0.5-0.1c0.3-0.1,0.8-0.1,1.4-0.3c0.3-0.1,0.6-0.2,0.9-0.2c0.3-0.1,0.7-0.2,1-0.3c0.4-0.1,0.7-0.2,1.1-0.4
						c0.4-0.1,0.7-0.3,1.1-0.5c0.7-0.4,1.4-0.8,2-1.3c0.6-0.5,1.1-1,1.4-1.6c0.3-0.4,0.5-0.9,0.7-1.2c0.6,3.3-4.6,6.5-7.9,8.1
						c-0.3,0.1-0.1,0.5,0.2,0.4c2.4-0.6,4.1-0.7,4.8,0.5c-0.1,0.1-0.5,0.5-1,0.9c-0.7,0.6-1.7,1.3-2.7,1.8c-0.5,0.3-1.1,0.5-1.6,0.7
						c-0.3,0.1-0.5,0.1-0.8,0.2c-0.3,0-0.5,0.1-0.7,0.1c-0.2,0-0.4,0-0.6,0c-0.2,0-0.3,0-0.5-0.1c-0.3,0-0.4-0.1-0.4-0.1
						s0.1,0,0.4,0.1c0.1,0,0.3,0.1,0.5,0.1c0.2,0,0.4,0.1,0.6,0.1c0.2,0,0.5,0,0.8,0c0.3,0,0.6-0.1,0.8-0.1c0.6-0.1,1.2-0.3,1.8-0.5
						c1.2-0.4,2.3-1,3.1-1.5c0.3-0.2,0.5-0.3,0.7-0.4c-0.3,2.5-7.2,5.3-7.5,5.8c-0.5,0.7,1.4,1,2.5,1.1c0.2,0,0.3,0.3,0.1,0.4
						c-4.9,3-9.6,2.4-11.4,2c-0.2,0-0.3-0.4,0-0.5c7-2.8,4.7-4.8,3.8-5.3c-0.1-0.1-0.1-0.2,0-0.4c3.2-3.7,0.8-4.6-0.2-4.9
						c-0.2,0-0.2-0.2-0.1-0.4c4.4-5.7,2.4-6.1,1.3-6c-0.2,0-0.3-0.2-0.2-0.4c3.9-5.7,1.2-6.3,0.1-6.3c-0.2,0-0.3-0.2-0.2-0.4
						c1.8-2.6-0.1-3-1-3c-0.2,0-0.3-0.2-0.2-0.4c2.9-4.3,0.7-5.4-0.6-5.7c-0.2,0-0.2-0.3,0-0.5c0.6-0.7,1.5-2.9,6.1-3.5
						c5.3-0.6,8.2,2.9,8.4,3.9c0,0.2,0.2,0.3,0.4,0.2c4.4-2.9,5.5-2.6,5.7-2.3c0.1,0.1,0.2,0.1,0.3,0c7.6-3.3,3.7,0.8,2,2.4
						c-0.2,0.2,0,0.4,0.2,0.4c2.1-0.4,1.9,0.2,1.4,0.7c-0.2,0.2,0,0.5,0.2,0.5c5.2-0.4,8-0.2,9.3,0.2c0,0-0.1,0-0.1,0
						c-0.9,0.1-2,0.4-3.1,0.8c-1.1,0.4-2.1,0.9-2.9,1.4c-0.4,0.2-0.7,0.4-0.9,0.6c-0.2,0.1-0.3,0.2-0.3,0.2s0.1-0.1,0.3-0.2
						c0.2-0.1,0.5-0.3,0.9-0.5c0.8-0.3,1.8-0.7,2.9-0.9c1.1-0.2,2.2-0.3,3-0.3c0.3,0,0.6,0,0.8,0c-0.5,1.4-4.1,3.4-5.9,4.5
						c-0.2,0.1-0.1,0.5,0.2,0.4c3.9-0.6,6.1-0.7,7.3-0.7c0.5,0,0.7,0.8,0.2,1c-13,4.9,5.9,2,9,6c-0.4,0-1-0.1-1.6-0.1
						c-1.5-0.1-3.4,0-5.3,0.2c-1,0.1-1.9,0.3-2.8,0.5c-0.9,0.2-1.7,0.4-2.4,0.6c-0.7,0.2-1.2,0.4-1.6,0.6c-0.4,0.2-0.6,0.2-0.6,0.2
						s0.2-0.1,0.6-0.2c0.4-0.1,1-0.3,1.7-0.4c0.7-0.2,1.5-0.3,2.4-0.4c0.9-0.1,1.8-0.2,2.8-0.2c1.9-0.1,3.8,0.1,5.2,0.2
						c1,0.1,1.7,0.2,2,0.3C771.3,28.4,761.6,29.8,757.9,30.2z"/>
					<g>
						<path class="st0" d="M654.1,66c4.2-0.9,11.2-0.4,12.9-0.2c0.2,0,0.5-0.2,0.5-0.4c-0.2-1.4-2.3-3.4-3.3-4.2
							c-0.2-0.2-0.1-0.5,0.1-0.6c10.5-5.3,6.8-5.7,6.8-5.7c-7,1.4-12.8,1.7-17,1.5V66z"/>
						<path class="st0" d="M673,109.2c-6.3-5.6-15.6-19.8-17.1-27.9c-0.5-2.7-0.8-5-1.9-6.9v17.5c7.3,10.8,14.3,15.8,18.3,17.9
							C672.8,110,673.3,109.5,673,109.2z"/>
						<path class="st0" d="M654.1,97.2v11.2c4.2,5.2,7.1,9.9,8.4,11.7c0.2,0.3,0.7,0.2,0.7-0.2c0.2-2.3,0-8.5-5.1-15.9
							C656.7,102,655.1,99.7,654.1,97.2z"/>
					</g>
				</g>
			</g>
		</g>
		<rect x="653.7" y="17.9" class="st0" width="2.5" height="246.1"/>
	</g>
</g>
</svg>
